# xmcd
#
# Track frame offsets: 
#        150
#        17877
#        32625
#        51772
#        66745
#        86385
#        104412
#        120735
#        137210
#        149692
#        160230
#
# Disc length: 2323 seconds
#
# Revision: 0
# Processed by: cddbd v1.5.2PL0 Copyright (c) Steve Scherf et al.
# Submitted via: ExactAudioCopy v0.99pb4
#
DISCID=a209110b
DTITLE=Carry and Ron - I.O.U
DYEAR=1996
DGENRE=Country
TTITLE0=Bad girl
TTITLE1=Matter of love
TTITLE2=Every new day
TTITLE3=You can't bring back
TTITLE4=Yvonne's song
TTITLE5=History
TTITLE6=There's a light
TTITLE7=She hates the friday nights
TTITLE8=A simple song
TTITLE9=Motherless child
TTITLE10=I.O.U.
EXTD=
EXTT0=
EXTT1=
EXTT2=
EXTT3=
EXTT4=
EXTT5=
EXTT6=
EXTT7=
EXTT8=
EXTT9=
EXTT10=
PLAYORDER=
